<svg id="SvgjsSvg1027" width="288" height="288" xmlns="http://www.w3.org/2000/svg" version="1.1" xmlns:xlink="http://www.w3.org/1999/xlink" xmlns:svgjs="http://svgjs.com/svgjs"><defs id="SvgjsDefs1028"></defs><g id="SvgjsG1029"><svg xmlns="http://www.w3.org/2000/svg" xmlns:xlink="http://www.w3.org/1999/xlink" width="288" height="288" viewBox="0 0 348.43 348.43"><defs><symbol id="b" overflow="visible"><path d="M 38.734375 -49.9375 L 30.453125 -49.9375 L 23.40625 -31.078125 L 21.28125 -24.734375 L 19.09375 -31.078125 L 12.4375 -49.9375 L 4.390625 -49.9375 L 1.875 0 L 8.296875 0 L 9.234375 -30.6875 L 9.390625 -43.125 L 11.65625 -35.375 L 18.703125 -16.28125 L 23.40625 -16.28125 L 30.765625 -36.15625 L 33.109375 -43.125 L 33.5 -31.234375 L 34.515625 0 L 41.171875 0 Z M 38.734375 -49.9375 " fill="#eceff4" class="color000 svgShape"></path></symbol><symbol id="c" overflow="visible"><path d="M 34.515625 -43.90625 C 30.6875 -47.90625 24.8125 -49.9375 17.0625 -49.9375 L 4.140625 -49.9375 L 4.140625 0 L 14.875 0 C 18 0 20.890625 -0.3125 23.40625 -0.859375 C 25.90625 -1.484375 28.09375 -2.34375 29.96875 -3.4375 C 31.859375 -4.546875 33.421875 -5.875 34.75 -7.359375 C 36 -8.921875 37.09375 -10.640625 37.875 -12.515625 C 38.734375 -14.40625 39.296875 -16.4375 39.6875 -18.625 C 40.078125 -20.8125 40.234375 -23.09375 40.234375 -25.515625 C 40.234375 -33.8125 38.34375 -39.921875 34.515625 -43.90625 Z M 16.046875 -5.875 L 10.953125 -5.875 L 10.953125 -44.21875 L 16.828125 -44.21875 C 19.5625 -44.21875 22 -43.90625 24.03125 -43.203125 C 26.0625 -42.5 27.703125 -41.484375 29.109375 -39.921875 C 30.453125 -38.421875 31.46875 -36.46875 32.09375 -34.046875 C 32.796875 -31.546875 33.109375 -28.5625 33.109375 -25.046875 C 33.109375 -12.28125 27.390625 -5.875 16.046875 -5.875 Z M 16.046875 -5.875 " fill="#eceff4" class="color000 svgShape"></path></symbol><clipPath id="a"><path d="M 0 0 L 348.429688 0 L 348.429688 348.429688 L 0 348.429688 Z M 0 0 " fill="#eceff4" class="color000 svgShape"></path></clipPath></defs><g clip-path="url(#a)" fill="#eceff4" class="color000 svgShape"><path fill="#5e81ac" d="M 348.433594 174.214844 C 348.433594 77.996094 270.433594 -0.00390625 174.21875 -0.00390625 C 78 -0.00390625 0 77.996094 0 174.214844 C 0 270.429688 78 348.429688 174.21875 348.429688 C 270.433594 348.429688 348.433594 270.429688 348.433594 174.214844 " class="color0476d9 svgShape"></path></g><path fill="none" stroke="#ebcb8b" stroke-linecap="round" stroke-width="29.999" d="M2248.4375 1740.471875L2550.625 1740.471875M2249.570313 787.190625L2550.625 1740.471875M2256.367188 2702.26875L2550.625 1740.471875M1288.046875 787.190625L1640.117188 1741.01875M1288.359375 1742.464062L1640.390625 787.190625M1288.359375 1742.464062L1640.703125 2700.55M1287.773438 2700.55L1640.117188 1741.01875M1287.773438 787.190625L1640.390625 787.190625M1288.046875 1742.464062L1640.117188 1742.464062M1288.359375 2700.55L1640.976563 2700.55M1287.773438 787.190625L1640.976563 2700.55M1288.359375 2700.55L1640.390625 787.190625" transform="matrix(.1 0 0 -.1 0 348.43)" class="colorStrokeecf230 svgStroke"></path><path fill="#bf616a" d="M 347.792969 174.417969 C 347.792969 200.050781 327.015625 220.828125 301.382813 220.828125 C 275.75 220.828125 254.972656 200.050781 254.972656 174.417969 C 254.972656 148.785156 275.75 128.007813 301.382813 128.007813 C 327.015625 128.007813 347.792969 148.785156 347.792969 174.417969 " class="colore70e22 svgShape"></path><use x="262.367" y="200.973" fill="#fff" xlink:href="#b"></use><use x="305.4" y="200.973" fill="#fff" xlink:href="#c"></use><path fill="#a3be8c" d="M225.015625 79.109375C225.015625 95.941406 211.371094 109.582031 194.542969 109.582031 177.710938 109.582031 164.070313 95.941406 164.070313 79.109375 164.070313 62.28125 177.710938 48.636719 194.542969 48.636719 211.371094 48.636719 225.015625 62.28125 225.015625 79.109375M225.015625 173.988281C225.015625 190.816406 211.371094 204.460938 194.542969 204.460938 177.710938 204.460938 164.070313 190.816406 164.070313 173.988281 164.070313 157.15625 177.710938 143.515625 194.542969 143.515625 211.371094 143.515625 225.015625 157.15625 225.015625 173.988281M225.015625 268.863281C225.015625 285.691406 211.371094 299.335938 194.542969 299.335938 177.710938 299.335938 164.070313 285.691406 164.070313 268.863281 164.070313 252.03125 177.710938 238.390625 194.542969 238.390625 211.371094 238.390625 225.015625 252.03125 225.015625 268.863281" class="colorbca19a svgShape"></path><path fill="#eceff4" d="M186.636719 95.269531L186.636719 70.570313 201.90625 95.269531 209.582031 95.269531 209.582031 57.390625 202.476563 57.390625 202.476563 82.6875 186.972656 57.390625 179.53125 57.390625 179.53125 95.269531 186.636719 95.269531M208.941406 192.921875L208.941406 186.539063 187.785156 186.539063 187.785156 176.230469 206.800781 176.230469 206.800781 169.851563 187.785156 169.851563 187.785156 161.453125 208.222656 161.453125 208.222656 155.046875 180.136719 155.046875 180.136719 192.921875 208.941406 192.921875M191.394531 256.667969C194.148438 256.667969 195.984375 256.757813 196.894531 256.929688 198.136719 257.152344 199.160156 257.710938 199.972656 258.605469 200.78125 259.503906 201.1875 260.640625 201.1875 262.015625 201.1875 263.136719 200.894531 264.117188 200.320313 264.964844 199.742188 265.808594 198.945313 266.425781 197.929688 266.824219 196.914063 267.21875 194.898438 267.417969 191.882813 267.417969L187.699219 267.417969 187.699219 256.667969zM187.699219 288.136719L187.699219 273.851563 192.683594 273.851563C196.148438 273.851563 198.789063 273.667969 200.617188 273.308594 201.960938 273.015625 203.28125 272.414063 204.582031 271.511719 205.882813 270.609375 206.953125 269.363281 207.800781 267.777344 208.644531 266.195313 209.066406 264.238281 209.066406 261.914063 209.066406 258.898438 208.332031 256.441406 206.867188 254.539063 205.40625 252.636719 203.589844 251.398438 201.417969 250.828125 200.003906 250.449219 196.972656 250.261719 192.324219 250.261719L180.050781 250.261719 180.050781 288.136719 187.699219 288.136719" class="colorfff svgShape"></path><path fill="#81a1c1" d="M128.777344 79.109375C128.777344 102.203125 110.058594 120.921875 86.96875 120.921875 63.875 120.921875 45.15625 102.203125 45.15625 79.109375 45.15625 56.019531 63.875 37.300781 86.96875 37.300781 110.058594 37.300781 128.777344 56.019531 128.777344 79.109375M128.777344 173.988281C128.777344 197.078125 110.058594 215.796875 86.96875 215.796875 63.875 215.796875 45.15625 197.078125 45.15625 173.988281 45.15625 150.894531 63.875 132.175781 86.96875 132.175781 110.058594 132.175781 128.777344 150.894531 128.777344 173.988281M128.777344 268.863281C128.777344 291.953125 110.058594 310.671875 86.96875 310.671875 63.875 310.671875 45.15625 291.953125 45.15625 268.863281 45.15625 245.769531 63.875 227.050781 86.96875 227.050781 110.058594 227.050781 128.777344 245.769531 128.777344 268.863281" class="color0d5f00 svgShape"></path><path fill="#eceff4" d="M102.199219 86.742188L102.199219 94.066406C100.441406 95.433594 98.332031 96.59375 95.878906 97.550781 93.421875 98.511719 90.976563 98.988281 88.535156 98.988281 83.597656 98.988281 79.609375 97.277344 76.5625 93.851563 73.519531 90.425781 71.996094 85.285156 71.996094 78.433594 71.996094 72.082031 73.496094 67.289063 76.503906 64.058594 79.511719 60.832031 83.558594 59.21875 88.652344 59.21875 92.011719 59.21875 94.816406 60.039063 97.058594 61.679688 99.304688 63.320313 100.832031 65.558594 101.648438 68.390625L113.226563 66.226563C112.070313 60.925781 109.476563 56.769531 105.449219 53.761719 101.417969 50.757813 95.820313 49.253906 88.652344 49.253906 83.140625 49.253906 78.53125 50.214844 74.832031 52.128906 69.972656 54.621094 66.285156 58.207031 63.765625 62.878906 61.246094 67.550781 59.984375 72.894531 59.984375 78.90625 59.984375 84.445313 61.113281 89.570313 63.371094 94.285156 65.628906 98.996094 69.003906 102.617188 73.492188 105.152344 77.980469 107.6875 83.242188 108.953125 89.28125 108.953125 94.035156 108.953125 98.726563 108.054688 103.359375 106.253906 107.992188 104.457031 111.53125 102.375 113.972656 100.011719L113.972656 77.015625 88.847656 77.015625 88.847656 86.742188 102.199219 86.742188M82.144531 154.878906C86.34375 154.878906 89.140625 155.011719 90.53125 155.273438 92.421875 155.613281 93.984375 156.46875 95.21875 157.832031 96.449219 159.199219 97.066406 160.933594 97.066406 163.03125 97.066406 164.738281 96.628906 166.234375 95.75 167.519531 94.867188 168.808594 93.65625 169.753906 92.105469 170.355469 90.558594 170.960938 87.484375 171.261719 82.890625 171.261719L76.511719 171.261719 76.511719 154.878906zM76.511719 202.84375L76.511719 181.066406 84.113281 181.066406C89.390625 181.066406 93.417969 180.789063 96.203125 180.238281 98.25 179.792969 100.265625 178.882813 102.246094 177.503906 104.226563 176.125 105.863281 174.226563 107.148438 171.8125 108.433594 169.398438 109.078125 166.417969 109.078125 162.875 109.078125 158.28125 107.960938 154.53125 105.730469 151.632813 103.5 148.730469 100.730469 146.847656 97.421875 145.980469 95.269531 145.402344 90.648438 145.113281 83.5625 145.113281L64.855469 145.113281 64.855469 202.84375 76.511719 202.84375M63.957031 270.273438C63.957031 276.730469 64.335938 281.613281 65.097656 284.921875 65.621094 287.152344 66.710938 289.285156 68.367188 291.320313 70.019531 293.355469 72.269531 295.011719 75.121094 296.28125 77.96875 297.558594 82.148438 298.191406 87.660156 298.191406 92.230469 298.191406 95.929688 297.609375 98.765625 296.441406 101.601563 295.273438 103.867188 293.703125 105.558594 291.734375 107.253906 289.765625 108.414063 287.351563 109.042969 284.488281 109.675781 281.628906 109.988281 276.730469 109.988281 269.800781L109.988281 239.480469 98.332031 239.480469 98.332031 271.414063C98.332031 275.984375 98.160156 279.25 97.820313 281.222656 97.480469 283.1875 96.46875 284.851563 94.789063 286.203125 93.109375 287.554688 90.613281 288.230469 87.308594 288.230469 84.050781 288.230469 81.484375 287.515625 79.609375 286.082031 77.730469 284.652344 76.542969 282.757813 76.042969 280.394531 75.753906 278.925781 75.613281 275.707031 75.613281 270.746094L75.613281 239.480469 63.957031 239.480469 63.957031 270.273438" class="colorfff svgShape"></path></svg></g></svg>