<?xml version="1.0" encoding="UTF-8" standalone="no"?>
<!DOCTYPE svg PUBLIC "-//W3C//DTD SVG 1.1//EN" "http://www.w3.org/Graphics/SVG/1.1/DTD/svg11.dtd">
<svg width="100%" height="100%" viewBox="0 0 600 600" version="1.1" xmlns="http://www.w3.org/2000/svg" xmlns:xlink="http://www.w3.org/1999/xlink" xml:space="preserve" xmlns:serif="http://www.serif.com/" style="fill-rule:evenodd;clip-rule:evenodd;stroke-linejoin:round;stroke-miterlimit:2;">
    <g transform="matrix(8.68077,0,0,8.68077,-324.006,-267.641)">
        <g id="SvgjsG1029">
            <g>
                <path d="M106.443,65.389C106.443,84.478 90.971,99.95 71.885,99.95C52.797,99.95 37.325,84.478 37.325,65.389C37.325,46.304 52.797,30.832 71.885,30.832C90.971,30.832 106.443,46.304 106.443,65.389" style="fill:rgb(129,161,193);fill-rule:nonzero;"/>
                <path d="M84.474,71.698L84.474,77.752C83.021,78.882 81.278,79.841 79.25,80.632C77.219,81.426 75.198,81.82 73.18,81.82C69.099,81.82 65.802,80.406 63.284,77.574C60.769,74.743 59.509,70.494 59.509,64.83C59.509,59.58 60.749,55.619 63.235,52.949C65.722,50.282 69.067,48.948 73.277,48.948C76.054,48.948 78.372,49.626 80.225,50.982C82.082,52.338 83.344,54.188 84.019,56.529L93.589,54.741C92.633,50.359 90.489,46.924 87.161,44.438C83.829,41.955 79.202,40.712 73.277,40.712C68.721,40.712 64.911,41.506 61.854,43.088C57.837,45.148 54.789,48.112 52.706,51.973C50.624,55.835 49.581,60.252 49.581,65.221C49.581,69.8 50.514,74.036 52.38,77.933C54.247,81.827 57.036,84.82 60.746,86.915C64.456,89.011 68.805,90.057 73.797,90.057C77.726,90.057 81.604,89.314 85.433,87.826C89.263,86.341 92.188,84.62 94.206,82.666L94.206,63.658L73.438,63.658L73.438,71.698L84.474,71.698" style="fill:rgb(236,239,244);fill-rule:nonzero;"/>
            </g>
        </g>
    </g>
</svg>
