<?xml version="1.0" encoding="UTF-8" standalone="no"?>
<!DOCTYPE svg PUBLIC "-//W3C//DTD SVG 1.1//EN" "http://www.w3.org/Graphics/SVG/1.1/DTD/svg11.dtd">
<svg width="100%" height="100%" viewBox="0 0 600 600" version="1.1" xmlns="http://www.w3.org/2000/svg" xmlns:xlink="http://www.w3.org/1999/xlink" xml:space="preserve" xmlns:serif="http://www.serif.com/" style="fill-rule:evenodd;clip-rule:evenodd;stroke-linecap:round;">
    <g id="SvgjsG1029" transform="matrix(2.08333,0,0,2.08333,0,0)">
        <g>
            <g>
                <clipPath id="_clip1">
                    <rect x="0" y="0" width="288" height="288"/>
                </clipPath>
                <g clip-path="url(#_clip1)">
                    <path d="M288.003,144C288.003,64.469 223.531,-0.003 144.003,-0.003C64.472,-0.003 0,64.469 0,144C0,223.528 64.472,288 144.003,288C223.531,288 288.003,223.528 288.003,144" style="fill:rgb(94,129,172);fill-rule:nonzero;"/>
                </g>
            </g>
            <g transform="matrix(0.1,0,0,-0.1,0,288)">
                <path d="M1858.48,1438.61L2108.26,1438.61M1859.42,650.664L2108.26,1438.61M1865.03,2233.6L2108.26,1438.61M1064.65,650.664L1355.66,1439.07M1064.91,1440.26L1355.89,650.664M1064.91,1440.26L1356.15,2232.18M1064.43,2232.18L1355.66,1439.07M1064.43,650.664L1355.89,650.664M1064.65,1440.26L1355.66,1440.26M1064.91,2232.18L1356.37,2232.18M1064.43,650.664L1356.37,2232.18M1064.91,2232.18L1355.89,650.664" style="fill:none;fill-rule:nonzero;stroke:rgb(235,203,139);stroke-width:24.8px;"/>
            </g>
            <path d="M287.473,144.168C287.473,165.355 270.3,182.529 249.112,182.529C227.925,182.529 210.751,165.355 210.751,144.168C210.751,122.981 227.925,105.807 249.112,105.807C270.3,105.807 287.473,122.981 287.473,144.168" style="fill:rgb(191,97,106);fill-rule:nonzero;"/>
            <g id="b" transform="matrix(1,0,0,1,216.863,166.117)">
                <path d="M32.016,-41.277L25.171,-41.277L19.347,-25.688L17.59,-20.445L15.782,-25.688L10.28,-41.277L3.629,-41.277L1.55,0L6.858,0L7.633,-25.365L7.762,-35.646L9.635,-29.24L15.459,-13.458L19.347,-13.458L25.43,-29.885L27.367,-35.646L27.69,-25.817L28.529,0L34.031,0L32.016,-41.277Z" style="fill:rgb(236,239,244);fill-rule:nonzero;"/>
            </g>
            <g id="c" transform="matrix(1,0,0,1,252.433,166.117)">
                <path d="M28.529,-36.291C25.365,-39.598 20.509,-41.277 14.103,-41.277L3.422,-41.277L3.422,0L12.295,0C14.878,0 17.267,-0.258 19.347,-0.71C21.413,-1.227 23.221,-1.937 24.771,-2.841C26.334,-3.758 27.625,-4.856 28.723,-6.083C29.756,-7.375 30.66,-8.795 31.306,-10.345C32.016,-11.908 32.481,-13.587 32.804,-15.395C33.127,-17.203 33.256,-19.088 33.256,-21.09C33.256,-27.948 31.694,-32.998 28.529,-36.291ZM13.264,-4.856L9.053,-4.856L9.053,-36.55L13.91,-36.55C16.17,-36.55 18.184,-36.291 19.863,-35.71C21.542,-35.129 22.898,-34.29 24.061,-32.998C25.171,-31.758 26.011,-30.144 26.528,-28.142C27.109,-26.076 27.367,-23.609 27.367,-20.703C27.367,-10.151 22.64,-4.856 13.264,-4.856Z" style="fill:rgb(236,239,244);fill-rule:nonzero;"/>
            </g>
            <path d="M185.99,65.389C185.99,79.302 174.712,90.577 160.802,90.577C146.89,90.577 135.615,79.302 135.615,65.389C135.615,51.479 146.89,40.201 160.802,40.201C174.712,40.201 185.99,51.479 185.99,65.389M185.99,143.813C185.99,157.722 174.712,169 160.802,169C146.89,169 135.615,157.722 135.615,143.813C135.615,129.9 146.89,118.625 160.802,118.625C174.712,118.625 185.99,129.9 185.99,143.813M185.99,222.233C185.99,236.142 174.712,247.421 160.802,247.421C146.89,247.421 135.615,236.142 135.615,222.233C135.615,208.32 146.89,197.045 160.802,197.045C174.712,197.045 185.99,208.32 185.99,222.233" style="fill:rgb(163,190,140);fill-rule:nonzero;"/>
            <path d="M154.267,78.746L154.267,58.331L166.889,78.746L173.233,78.746L173.233,47.437L167.36,47.437L167.36,68.347L154.545,47.437L148.394,47.437L148.394,78.746L154.267,78.746M172.704,159.462L172.704,154.187L155.217,154.187L155.217,145.666L170.934,145.666L170.934,140.393L155.217,140.393L155.217,133.451L172.11,133.451L172.11,128.156L148.895,128.156L148.895,159.462L172.704,159.462M158.2,212.153C160.476,212.153 161.994,212.227 162.746,212.369C163.773,212.553 164.619,213.015 165.29,213.754C165.959,214.497 166.295,215.436 166.295,216.573C166.295,217.5 166.052,218.31 165.578,219.011C165.1,219.708 164.441,220.218 163.602,220.548C162.762,220.874 161.096,221.038 158.604,221.038L155.146,221.038L155.146,212.153L158.2,212.153ZM155.146,238.164L155.146,226.356L159.265,226.356C162.129,226.356 164.312,226.204 165.823,225.907C166.934,225.665 168.025,225.168 169.1,224.422C170.176,223.676 171.06,222.646 171.761,221.335C172.458,220.028 172.807,218.41 172.807,216.489C172.807,213.996 172.2,211.965 170.989,210.393C169.782,208.821 168.28,207.797 166.485,207.326C165.316,207.013 162.811,206.858 158.968,206.858L148.824,206.858L148.824,238.164L155.146,238.164" style="fill:rgb(236,239,244);fill-rule:nonzero;"/>
            <path d="M106.443,65.389C106.443,84.478 90.971,99.95 71.885,99.95C52.797,99.95 37.325,84.478 37.325,65.389C37.325,46.304 52.797,30.832 71.885,30.832C90.971,30.832 106.443,46.304 106.443,65.389M106.443,143.813C106.443,162.898 90.971,178.37 71.885,178.37C52.797,178.37 37.325,162.898 37.325,143.813C37.325,124.724 52.797,109.252 71.885,109.252C90.971,109.252 106.443,124.724 106.443,143.813M106.443,222.233C106.443,241.318 90.971,256.79 71.885,256.79C52.797,256.79 37.325,241.318 37.325,222.233C37.325,203.144 52.797,187.672 71.885,187.672C90.971,187.672 106.443,203.144 106.443,222.233" style="fill:rgb(129,161,193);fill-rule:nonzero;"/>
            <path d="M84.474,71.698L84.474,77.752C83.021,78.882 81.278,79.841 79.25,80.632C77.219,81.426 75.198,81.82 73.18,81.82C69.099,81.82 65.802,80.406 63.284,77.574C60.769,74.743 59.509,70.494 59.509,64.83C59.509,59.58 60.749,55.619 63.235,52.949C65.722,50.282 69.067,48.948 73.277,48.948C76.054,48.948 78.372,49.626 80.225,50.982C82.082,52.338 83.344,54.188 84.019,56.529L93.589,54.741C92.633,50.359 90.489,46.924 87.161,44.438C83.829,41.955 79.202,40.712 73.277,40.712C68.721,40.712 64.911,41.506 61.854,43.088C57.837,45.148 54.789,48.112 52.706,51.973C50.624,55.835 49.581,60.252 49.581,65.221C49.581,69.8 50.514,74.036 52.38,77.933C54.247,81.827 57.036,84.82 60.746,86.915C64.456,89.011 68.805,90.057 73.797,90.057C77.726,90.057 81.604,89.314 85.433,87.826C89.263,86.341 92.188,84.62 94.206,82.666L94.206,63.658L73.438,63.658L73.438,71.698L84.474,71.698M67.898,128.017C71.369,128.017 73.681,128.127 74.83,128.344C76.393,128.624 77.684,129.332 78.704,130.458C79.722,131.588 80.232,133.022 80.232,134.756C80.232,136.167 79.87,137.403 79.144,138.466C78.414,139.531 77.413,140.313 76.131,140.81C74.853,141.31 72.312,141.559 68.514,141.559L63.242,141.559L63.242,128.017L67.898,128.017ZM63.242,167.664L63.242,149.663L69.525,149.663C73.887,149.663 77.216,149.434 79.518,148.979C81.21,148.611 82.876,147.858 84.513,146.718C86.15,145.579 87.503,144.01 88.565,142.014C89.627,140.019 90.16,137.555 90.16,134.627C90.16,130.83 89.237,127.73 87.393,125.334C85.549,122.935 83.26,121.379 80.526,120.662C78.746,120.184 74.927,119.946 69.07,119.946L53.607,119.946L53.607,167.664L63.242,167.664M52.865,223.399C52.865,228.736 53.178,232.772 53.807,235.506C54.24,237.35 55.141,239.113 56.51,240.795C57.876,242.477 59.735,243.846 62.092,244.896C64.446,245.951 67.901,246.475 72.457,246.475C76.234,246.475 79.292,245.993 81.636,245.028C83.98,244.063 85.853,242.765 87.251,241.137C88.652,239.51 89.611,237.515 90.131,235.148C90.654,232.785 90.912,228.736 90.912,223.008L90.912,197.946L81.278,197.946L81.278,224.341C81.278,228.119 81.136,230.818 80.855,232.449C80.574,234.073 79.738,235.448 78.349,236.565C76.961,237.683 74.898,238.241 72.166,238.241C69.473,238.241 67.352,237.65 65.802,236.465C64.249,235.284 63.268,233.718 62.854,231.764C62.616,230.55 62.499,227.89 62.499,223.789L62.499,197.946L52.865,197.946L52.865,223.399" style="fill:rgb(236,239,244);fill-rule:nonzero;"/>
        </g>
    </g>
</svg>
